<svg xmlns="http://www.w3.org/2000/svg" xmlns:xlink="http://www.w3.org/1999/xlink" width="500" zoomAndPan="magnify" viewBox="0 0 375 374.999991" height="500" preserveAspectRatio="xMidYMid meet" version="1.0"><defs><g/><clipPath id="5f2473ea89"><path d="M 145.664062 116.9375 L 187 116.9375 L 187 200.9375 L 145.664062 200.9375 Z M 145.664062 116.9375 " clip-rule="nonzero"/></clipPath><clipPath id="6b5f0873d2"><path d="M 188 116.9375 L 229.664062 116.9375 L 229.664062 200.9375 L 188 200.9375 Z M 188 116.9375 " clip-rule="nonzero"/></clipPath><clipPath id="907c948f52"><path d="M 1 0.320312 L 14 0.320312 L 14 15 L 1 15 Z M 1 0.320312 " clip-rule="nonzero"/></clipPath><clipPath id="ce5b5c890f"><path d="M 16 0.320312 L 26 0.320312 L 26 15 L 16 15 Z M 16 0.320312 " clip-rule="nonzero"/></clipPath><clipPath id="0028527fe8"><path d="M 27 0.320312 L 41 0.320312 L 41 15 L 27 15 Z M 27 0.320312 " clip-rule="nonzero"/></clipPath><clipPath id="e2869b802c"><path d="M 42 0.320312 L 54 0.320312 L 54 15 L 42 15 Z M 42 0.320312 " clip-rule="nonzero"/></clipPath><clipPath id="c40974886d"><path d="M 55 0.320312 L 67 0.320312 L 67 15 L 55 15 Z M 55 0.320312 " clip-rule="nonzero"/></clipPath><clipPath id="376d2c79f4"><path d="M 75 0.320312 L 86 0.320312 L 86 15 L 75 15 Z M 75 0.320312 " clip-rule="nonzero"/></clipPath><clipPath id="375db23cb8"><path d="M 88 0.320312 L 100 0.320312 L 100 15 L 88 15 Z M 88 0.320312 " clip-rule="nonzero"/></clipPath><clipPath id="ffc1784d45"><path d="M 102 0.320312 L 116 0.320312 L 116 15 L 102 15 Z M 102 0.320312 " clip-rule="nonzero"/></clipPath><clipPath id="6dad674aa2"><path d="M 117 0.320312 L 130 0.320312 L 130 15 L 117 15 Z M 117 0.320312 " clip-rule="nonzero"/></clipPath><clipPath id="fdde7313fc"><path d="M 132 0.320312 L 146 0.320312 L 146 15 L 132 15 Z M 132 0.320312 " clip-rule="nonzero"/></clipPath><clipPath id="e3cf4e42d4"><path d="M 148 0.320312 L 159 0.320312 L 159 15 L 148 15 Z M 148 0.320312 " clip-rule="nonzero"/></clipPath><clipPath id="bfe92049f6"><path d="M 162 0.320312 L 174 0.320312 L 174 15 L 162 15 Z M 162 0.320312 " clip-rule="nonzero"/></clipPath><clipPath id="70b8c88269"><rect x="0" width="176" y="0" height="19"/></clipPath></defs><g clip-path="url(#5f2473ea89)"><path fill="#51ade5" d="M 183.625 147.890625 L 181.351562 145.941406 C 178.148438 143.195312 174.144531 141.5625 169.953125 141.273438 L 169.953125 140.78125 C 171.941406 139.800781 173.359375 137.972656 173.832031 135.832031 L 175.351562 135.832031 C 177.585938 135.832031 179.398438 134.015625 179.398438 131.78125 C 179.398438 130.328125 178.628906 129.050781 177.472656 128.335938 L 177.625 127.882812 C 177.90625 127.035156 178.050781 126.148438 178.050781 125.253906 C 178.050781 120.667969 174.320312 116.9375 169.734375 116.9375 L 162.078125 116.9375 C 157.492188 116.9375 153.761719 120.667969 153.761719 125.253906 C 153.761719 126.148438 153.90625 127.035156 154.1875 127.882812 L 154.339844 128.335938 C 153.183594 129.050781 152.414062 130.328125 152.414062 131.78125 C 152.414062 134.015625 154.230469 135.832031 156.460938 135.832031 L 157.980469 135.832031 C 158.453125 137.972656 159.871094 139.800781 161.859375 140.78125 L 161.859375 141.300781 C 155.792969 141.976562 151.0625 147.132812 151.0625 153.371094 L 151.0625 164.167969 C 151.0625 164.628906 151.113281 165.078125 151.203125 165.515625 L 149.714844 165.515625 C 147.480469 165.515625 145.664062 167.332031 145.664062 169.5625 L 145.664062 183.058594 C 145.664062 186.777344 148.691406 189.804688 152.414062 189.804688 L 154.40625 189.804688 L 153.820312 197.101562 C 153.78125 197.363281 153.761719 197.628906 153.761719 197.902344 C 153.761719 199.390625 154.972656 200.597656 156.460938 200.597656 L 161.859375 200.597656 C 163.300781 200.597656 164.476562 199.460938 164.550781 198.039062 L 165.90625 185.152344 L 167.261719 198.039062 C 167.335938 199.460938 168.511719 200.597656 169.953125 200.597656 L 175.351562 200.597656 C 176.839844 200.597656 178.050781 199.390625 178.050781 197.902344 C 178.050781 197.628906 178.03125 197.363281 177.992188 197.101562 L 175.449219 165.351562 C 176.03125 165.1875 176.570312 164.898438 177.035156 164.503906 L 183.625 158.851562 C 185.226562 157.480469 186.148438 155.480469 186.148438 153.371094 C 186.148438 151.261719 185.226562 149.265625 183.625 147.890625 Z M 176.703125 131.78125 C 176.703125 132.527344 176.097656 133.132812 175.351562 133.132812 L 174.003906 133.132812 L 174.003906 130.433594 L 175.351562 130.433594 C 176.097656 130.433594 176.703125 131.039062 176.703125 131.78125 Z M 157.808594 133.132812 L 156.460938 133.132812 C 155.71875 133.132812 155.113281 132.527344 155.113281 131.78125 C 155.113281 131.039062 155.71875 130.433594 156.460938 130.433594 L 157.808594 130.433594 Z M 157.808594 127.734375 L 156.984375 127.734375 L 156.75 127.03125 C 156.558594 126.457031 156.460938 125.859375 156.460938 125.253906 C 156.460938 122.15625 158.980469 119.636719 162.078125 119.636719 L 169.734375 119.636719 C 172.832031 119.636719 175.351562 122.15625 175.351562 125.253906 C 175.351562 125.859375 175.253906 126.457031 175.0625 127.03125 L 174.828125 127.734375 L 174.003906 127.734375 C 174.003906 126.246094 172.792969 125.035156 171.304688 125.035156 C 169.925781 125.035156 168.625 124.5 167.652344 123.523438 L 165.90625 121.777344 L 164.160156 123.523438 C 163.1875 124.5 161.890625 125.035156 160.507812 125.035156 C 159.019531 125.035156 157.808594 126.246094 157.808594 127.734375 Z M 160.507812 134.261719 L 160.507812 127.734375 C 162.535156 127.734375 164.441406 126.972656 165.90625 125.589844 C 167.371094 126.972656 169.28125 127.734375 171.304688 127.734375 L 171.304688 134.261719 C 171.304688 136.234375 170.046875 137.976562 168.179688 138.597656 L 167.253906 138.90625 L 167.253906 142.019531 L 165.90625 143.367188 L 164.558594 142.019531 L 164.558594 138.90625 L 163.632812 138.597656 C 161.765625 137.976562 160.507812 136.234375 160.507812 134.261719 Z M 169.652344 143.964844 L 169.027344 147.082031 L 167.214844 145.875 L 169.152344 143.9375 C 169.316406 143.945312 169.484375 143.953125 169.652344 143.964844 Z M 164.597656 145.875 L 162.785156 147.082031 L 162.167969 143.984375 C 162.332031 143.96875 162.496094 143.953125 162.664062 143.941406 Z M 153.761719 153.371094 C 153.761719 149.460938 156.152344 146.097656 159.550781 144.664062 L 160.929688 151.5625 L 164.558594 149.148438 L 164.558594 162.816406 L 159.160156 162.816406 L 159.160156 153.929688 C 159.160156 153.0625 159.5 152.242188 160.113281 151.628906 L 158.207031 149.71875 C 157.082031 150.84375 156.460938 152.339844 156.460938 153.929688 L 156.460938 160.117188 L 153.761719 160.117188 Z M 154.621094 187.105469 L 152.414062 187.105469 C 150.179688 187.105469 148.363281 185.289062 148.363281 183.058594 L 148.363281 173.515625 C 150.296875 175.234375 152.796875 176.246094 155.484375 176.304688 Z M 155.699219 173.613281 C 152.636719 173.59375 149.871094 171.949219 148.394531 169.285156 C 148.523438 168.675781 149.066406 168.214844 149.714844 168.214844 L 152.425781 168.214844 C 153.292969 169.363281 154.519531 170.234375 155.9375 170.648438 Z M 156.160156 167.863281 C 154.746094 167.222656 153.761719 165.792969 153.761719 164.167969 L 153.761719 162.816406 L 156.460938 162.816406 L 156.460938 164.113281 Z M 161.859375 197.902344 L 156.460938 197.902344 C 156.460938 196.414062 157.671875 195.203125 159.160156 195.203125 C 160.648438 195.203125 161.859375 196.414062 161.859375 197.902344 Z M 169.5 193.523438 L 167.347656 173.050781 L 169.207031 172.121094 L 168 169.707031 L 165.90625 170.753906 L 163.8125 169.707031 L 162.605469 172.121094 L 164.464844 173.050781 L 162.3125 193.523438 C 161.425781 192.882812 160.335938 192.503906 159.160156 192.503906 C 158.335938 192.503906 157.554688 192.691406 156.855469 193.019531 L 159.054688 165.515625 L 172.757812 165.515625 L 174.957031 193.019531 C 174.257812 192.691406 173.476562 192.503906 172.652344 192.503906 C 171.476562 192.503906 170.390625 192.882812 169.5 193.523438 Z M 175.351562 197.902344 L 169.953125 197.902344 C 169.953125 196.414062 171.164062 195.203125 172.652344 195.203125 C 174.140625 195.203125 175.351562 196.414062 175.355469 197.902344 C 175.355469 197.902344 175.351562 197.902344 175.351562 197.902344 Z M 175.277344 162.453125 C 175.003906 162.6875 174.652344 162.816406 174.292969 162.816406 L 174.167969 162.816406 C 173.332031 162.816406 172.652344 162.140625 172.652344 161.304688 C 172.652344 160.898438 172.8125 160.519531 173.097656 160.234375 L 174.003906 159.328125 L 176.273438 161.597656 Z M 181.871094 156.800781 L 178.328125 159.839844 L 175.910156 157.421875 L 179.003906 154.328125 L 177.097656 152.417969 L 175.351562 154.164062 L 175.351562 153.929688 C 175.351562 152.339844 174.730469 150.84375 173.605469 149.71875 L 171.699219 151.628906 C 172.3125 152.242188 172.652344 153.0625 172.652344 153.929688 L 172.652344 156.859375 L 171.1875 158.328125 C 170.394531 159.121094 169.953125 160.179688 169.953125 161.304688 C 169.953125 161.835938 170.054688 162.347656 170.238281 162.816406 L 167.253906 162.816406 L 167.253906 149.148438 L 170.882812 151.566406 L 172.328125 144.34375 C 174.992188 144.945312 177.492188 146.191406 179.597656 147.992188 L 181.871094 149.941406 C 182.871094 150.800781 183.449219 152.050781 183.449219 153.371094 C 183.449219 154.691406 182.871094 155.941406 181.871094 156.800781 Z M 181.871094 156.800781 " fill-opacity="1" fill-rule="nonzero"/></g><path fill="#51ade5" d="M 169.164062 135.832031 L 169.558594 135.433594 L 167.652344 133.527344 L 167.253906 133.921875 C 166.894531 134.28125 166.417969 134.480469 165.90625 134.480469 C 165.398438 134.480469 164.917969 134.28125 164.558594 133.921875 L 164.160156 133.527344 L 162.253906 135.433594 L 162.648438 135.832031 C 163.519531 136.699219 164.675781 137.179688 165.90625 137.179688 C 167.136719 137.179688 168.292969 136.699219 169.164062 135.832031 Z M 169.164062 135.832031 " fill-opacity="1" fill-rule="nonzero"/><path fill="#51ade5" d="M 212.34375 135.832031 L 212.738281 135.433594 L 210.832031 133.527344 L 210.433594 133.921875 C 210.074219 134.28125 209.59375 134.480469 209.085938 134.480469 C 208.574219 134.480469 208.097656 134.28125 207.738281 133.921875 L 207.339844 133.527344 L 205.433594 135.433594 L 205.828125 135.832031 C 206.699219 136.699219 207.855469 137.179688 209.085938 137.179688 C 210.316406 137.179688 211.472656 136.699219 212.34375 135.832031 Z M 212.34375 135.832031 " fill-opacity="1" fill-rule="nonzero"/><g clip-path="url(#6b5f0873d2)"><path fill="#51ade5" d="M 225.277344 165.515625 L 223.792969 165.515625 C 223.882812 165.078125 223.929688 164.625 223.929688 164.167969 L 223.929688 153.371094 C 223.929688 150.5625 222.964844 147.972656 221.359375 145.914062 L 222.582031 145.09375 C 224.269531 143.96875 225.277344 142.089844 225.277344 140.0625 L 225.277344 139.953125 C 225.277344 138.753906 224.925781 137.59375 224.261719 136.597656 L 223.140625 134.917969 C 222.773438 134.363281 222.578125 133.722656 222.578125 133.058594 L 222.578125 126.386719 C 222.578125 121.175781 218.34375 116.9375 213.132812 116.9375 L 205.039062 116.9375 C 199.828125 116.9375 195.59375 121.175781 195.59375 126.386719 L 195.59375 133.058594 C 195.59375 133.722656 195.398438 134.363281 195.03125 134.917969 L 193.910156 136.597656 C 193.246094 137.59375 192.894531 138.753906 192.894531 139.953125 C 192.894531 141.84375 193.753906 143.582031 195.226562 144.722656 C 194.679688 145.101562 194.148438 145.507812 193.640625 145.945312 L 191.367188 147.894531 C 189.765625 149.265625 188.84375 151.261719 188.84375 153.371094 C 188.84375 155.480469 189.765625 157.480469 191.367188 158.851562 L 197.957031 164.503906 C 198.234375 164.738281 198.539062 164.933594 198.859375 165.09375 L 195.160156 171.261719 L 196.132812 171.992188 C 197.089844 172.710938 198.105469 173.34375 199.164062 173.890625 L 194.042969 193.351562 C 192.542969 194.308594 191.542969 195.988281 191.542969 197.902344 C 191.542969 199.390625 192.753906 200.597656 194.242188 200.597656 L 199.640625 200.597656 C 201.039062 200.597656 202.1875 199.53125 202.324219 198.171875 L 208.425781 180.890625 L 210.441406 198.039062 C 210.515625 199.464844 211.691406 200.597656 213.132812 200.597656 L 218.53125 200.597656 C 220.019531 200.597656 221.230469 199.390625 221.230469 197.902344 C 221.230469 196.433594 220.640625 195.097656 219.683594 194.125 L 219.457031 189.804688 L 222.578125 189.804688 C 226.300781 189.804688 229.324219 186.777344 229.324219 183.058594 L 229.324219 169.5625 C 229.324219 167.332031 227.511719 165.515625 225.277344 165.515625 Z M 221.621094 169.246094 C 221.980469 168.933594 222.296875 168.589844 222.578125 168.214844 L 225.277344 168.214844 C 225.925781 168.214844 226.46875 168.675781 226.597656 169.285156 C 225.160156 171.878906 222.5 173.507812 219.53125 173.605469 C 220.402344 173.128906 221.242188 172.589844 222.039062 171.992188 L 223.152344 171.15625 Z M 215.832031 153.929688 C 215.832031 154.390625 215.800781 154.855469 215.734375 155.3125 L 214.664062 162.816406 L 210.433594 162.816406 L 210.433594 148.496094 L 214.089844 149.714844 L 215.359375 144.632812 C 218.402344 145.878906 220.648438 148.667969 221.132812 152.023438 L 218.21875 152.023438 C 217.929688 151.164062 217.445312 150.378906 216.785156 149.71875 L 214.878906 151.628906 C 215.492188 152.242188 215.832031 153.0625 215.832031 153.929688 Z M 206.8125 138.597656 C 204.945312 137.976562 203.6875 136.234375 203.6875 134.261719 L 203.6875 127.503906 C 203.6875 127.140625 203.828125 126.804688 204.082031 126.546875 L 205.210938 125.421875 C 207.582031 126.933594 210.316406 127.734375 213.132812 127.734375 C 213.878906 127.734375 214.484375 128.339844 214.484375 129.082031 L 214.484375 134.261719 C 214.484375 136.234375 213.226562 137.976562 211.359375 138.597656 L 210.433594 138.90625 L 210.433594 142.019531 L 209.085938 143.367188 L 207.738281 142.019531 L 207.738281 138.90625 Z M 203.804688 158.328125 L 202.710938 157.234375 L 202.4375 155.3125 C 202.371094 154.855469 202.339844 154.390625 202.339844 153.929688 C 202.339844 153.0625 202.679688 152.242188 203.292969 151.628906 L 201.386719 149.71875 C 200.261719 150.84375 199.640625 152.339844 199.640625 153.929688 C 199.640625 154.007812 199.644531 154.089844 199.644531 154.167969 L 198.269531 152.792969 C 198.132812 150.910156 197.335938 149.160156 195.988281 147.8125 L 195.820312 147.640625 C 197.847656 146.011719 200.21875 144.886719 202.734375 144.328125 L 204.082031 149.714844 L 207.738281 148.496094 L 207.738281 162.816406 L 204.753906 162.816406 C 204.9375 162.347656 205.039062 161.835938 205.039062 161.304688 C 205.039062 160.179688 204.597656 159.121094 203.804688 158.328125 Z M 205.425781 143.957031 C 205.5625 143.949219 205.699219 143.941406 205.839844 143.9375 L 207.601562 145.699219 L 205.992188 146.234375 Z M 212.742188 143.976562 L 212.179688 146.234375 L 210.570312 145.699219 L 212.328125 143.941406 C 212.464844 143.949219 212.605469 143.960938 212.742188 143.976562 Z M 218.40625 155.695312 C 218.453125 155.371094 218.484375 155.046875 218.503906 154.722656 L 221.230469 154.722656 L 221.230469 164.167969 C 221.230469 165.3125 220.75 166.378906 219.933594 167.136719 L 217.25 163.78125 Z M 220.898438 136.414062 L 222.015625 138.09375 C 222.382812 138.644531 222.578125 139.289062 222.578125 139.953125 L 222.578125 140.0625 C 222.578125 141.183594 222.019531 142.226562 221.085938 142.851562 L 219.433594 143.953125 C 217.671875 142.519531 215.507812 141.566406 213.132812 141.300781 L 213.132812 140.78125 C 215.121094 139.800781 216.539062 137.972656 217.011719 135.832031 L 218.53125 135.832031 C 219.1875 135.832031 219.804688 135.671875 220.355469 135.394531 C 220.503906 135.75 220.679688 136.089844 220.898438 136.414062 Z M 217.183594 133.132812 L 217.183594 130.433594 L 218.53125 130.433594 C 219.273438 130.433594 219.878906 131.039062 219.878906 131.78125 C 219.878906 132.527344 219.273438 133.132812 218.53125 133.132812 Z M 198.289062 126.386719 C 198.289062 122.664062 201.316406 119.636719 205.039062 119.636719 L 213.132812 119.636719 C 216.855469 119.636719 219.878906 122.664062 219.878906 126.386719 L 219.878906 127.964844 C 219.457031 127.816406 219.003906 127.734375 218.53125 127.734375 L 216.949219 127.734375 C 216.394531 126.164062 214.894531 125.035156 213.132812 125.035156 C 210.753906 125.035156 208.445312 124.335938 206.464844 123.015625 L 204.867188 121.949219 L 202.175781 124.640625 C 201.410156 125.40625 200.988281 126.421875 200.988281 127.503906 L 200.988281 127.734375 L 199.640625 127.734375 C 199.167969 127.734375 198.714844 127.816406 198.289062 127.964844 Z M 199.640625 130.433594 L 200.988281 130.433594 L 200.988281 133.132812 L 199.640625 133.132812 C 198.894531 133.132812 198.289062 132.527344 198.289062 131.78125 C 198.289062 131.039062 198.894531 130.433594 199.640625 130.433594 Z M 196.15625 138.09375 L 197.273438 136.414062 C 197.492188 136.089844 197.667969 135.75 197.816406 135.394531 C 198.367188 135.671875 198.984375 135.832031 199.640625 135.832031 L 201.160156 135.832031 C 201.632812 137.972656 203.050781 139.800781 205.039062 140.78125 L 205.039062 141.273438 C 202.523438 141.449219 200.074219 142.109375 197.828125 143.203125 L 197.183594 142.804688 C 196.1875 142.191406 195.59375 141.125 195.59375 139.953125 C 195.59375 139.289062 195.785156 138.644531 196.15625 138.09375 Z M 193.121094 156.800781 C 192.121094 155.941406 191.542969 154.691406 191.542969 153.371094 C 191.542969 152.050781 192.121094 150.800781 193.121094 149.941406 L 193.757812 149.398438 L 194.078125 149.71875 C 195.054688 150.695312 195.59375 151.992188 195.59375 153.371094 L 195.59375 153.929688 L 201.894531 160.234375 C 202.179688 160.519531 202.339844 160.902344 202.339844 161.304688 C 202.339844 162.140625 201.660156 162.816406 200.824219 162.816406 L 200.699219 162.816406 C 200.339844 162.816406 199.988281 162.6875 199.714844 162.453125 Z M 194.242188 197.902344 C 194.242188 196.414062 195.453125 195.203125 196.941406 195.203125 C 198.429688 195.203125 199.640625 196.414062 199.640625 197.902344 Z M 200.863281 194.199219 C 199.90625 193.183594 198.554688 192.539062 197.058594 192.507812 L 200.105469 180.929688 L 205.050781 182.34375 Z M 205.949219 179.792969 L 200.789062 178.320312 L 201.667969 174.984375 C 203.449219 175.636719 205.316406 176.058594 207.207031 176.226562 Z M 209.085938 173.613281 C 205.429688 173.613281 201.804688 172.523438 198.746094 170.53125 L 201.753906 165.515625 L 215.183594 165.515625 L 219.273438 170.628906 C 216.25 172.5625 212.679688 173.613281 209.085938 173.613281 Z M 211.050781 180.101562 L 210.597656 176.253906 C 212.429688 176.121094 214.242188 175.757812 215.984375 175.171875 L 216.210938 179.457031 Z M 212.632812 193.558594 L 211.363281 182.785156 L 216.351562 182.160156 L 216.902344 192.609375 C 216.554688 192.539062 216.199219 192.503906 215.832031 192.503906 C 214.636719 192.503906 213.527344 192.894531 212.632812 193.558594 Z M 213.132812 197.902344 C 213.132812 196.414062 214.34375 195.203125 215.832031 195.203125 C 217.320312 195.203125 218.53125 196.414062 218.53125 197.902344 Z M 226.628906 183.058594 C 226.628906 185.289062 224.8125 187.105469 222.578125 187.105469 L 219.3125 187.105469 L 218.746094 176.3125 L 219.242188 176.3125 C 222.03125 176.3125 224.632812 175.292969 226.628906 173.515625 Z M 226.628906 183.058594 " fill-opacity="1" fill-rule="nonzero"/></g><g transform="matrix(1, 0, 0, 1, 100, 208)"><g clip-path="url(#70b8c88269)"><g clip-path="url(#907c948f52)"><g fill="#13294a" fill-opacity="1"><g transform="translate(0.634517, 14.484613)"><g><path d="M 10.828125 -3.328125 C 10.941406 -3.421875 11.054688 -3.460938 11.171875 -3.453125 C 11.285156 -3.441406 11.375 -3.394531 11.4375 -3.3125 L 12.484375 -1.71875 C 12.535156 -1.65625 12.539062 -1.570312 12.5 -1.46875 C 12.46875 -1.363281 12.398438 -1.273438 12.296875 -1.203125 C 11.929688 -0.921875 11.507812 -0.671875 11.03125 -0.453125 C 10.5625 -0.242188 10.070312 -0.0820312 9.5625 0.03125 C 9.050781 0.15625 8.5625 0.21875 8.09375 0.21875 C 7.28125 0.21875 6.507812 0.101562 5.78125 -0.125 C 5.050781 -0.363281 4.382812 -0.695312 3.78125 -1.125 C 3.175781 -1.5625 2.648438 -2.078125 2.203125 -2.671875 C 1.765625 -3.265625 1.425781 -3.921875 1.1875 -4.640625 C 0.945312 -5.359375 0.828125 -6.117188 0.828125 -6.921875 C 0.828125 -7.722656 0.945312 -8.484375 1.1875 -9.203125 C 1.425781 -9.921875 1.765625 -10.578125 2.203125 -11.171875 C 2.648438 -11.773438 3.175781 -12.289062 3.78125 -12.71875 C 4.382812 -13.15625 5.050781 -13.488281 5.78125 -13.71875 C 6.507812 -13.957031 7.28125 -14.078125 8.09375 -14.078125 C 8.550781 -14.078125 9.035156 -14.019531 9.546875 -13.90625 C 10.054688 -13.789062 10.554688 -13.625 11.046875 -13.40625 C 11.535156 -13.195312 11.96875 -12.9375 12.34375 -12.625 C 12.457031 -12.539062 12.519531 -12.445312 12.53125 -12.34375 C 12.550781 -12.25 12.535156 -12.164062 12.484375 -12.09375 L 11.4375 -10.53125 C 11.394531 -10.445312 11.316406 -10.394531 11.203125 -10.375 C 11.085938 -10.363281 10.96875 -10.410156 10.84375 -10.515625 C 10.46875 -10.835938 10.03125 -11.082031 9.53125 -11.25 C 9.039062 -11.425781 8.5625 -11.515625 8.09375 -11.515625 C 7.4375 -11.515625 6.820312 -11.394531 6.25 -11.15625 C 5.6875 -10.925781 5.191406 -10.597656 4.765625 -10.171875 C 4.335938 -9.753906 4 -9.265625 3.75 -8.703125 C 3.507812 -8.148438 3.390625 -7.554688 3.390625 -6.921875 C 3.390625 -6.285156 3.507812 -5.6875 3.75 -5.125 C 4 -4.570312 4.335938 -4.085938 4.765625 -3.671875 C 5.203125 -3.253906 5.703125 -2.929688 6.265625 -2.703125 C 6.828125 -2.472656 7.4375 -2.359375 8.09375 -2.359375 C 8.539062 -2.359375 9.007812 -2.441406 9.5 -2.609375 C 10 -2.785156 10.441406 -3.023438 10.828125 -3.328125 Z M 10.828125 -3.328125 "/></g></g></g></g><g clip-path="url(#ce5b5c890f)"><g fill="#13294a" fill-opacity="1"><g transform="translate(15.022785, 14.484613)"><g><path d="M 10.5 -2.265625 C 10.695312 -2.265625 10.796875 -2.160156 10.796875 -1.953125 L 10.796875 -0.3125 C 10.796875 -0.101562 10.695312 0 10.5 0 L 1.96875 0 C 1.757812 0 1.65625 -0.101562 1.65625 -0.3125 L 1.65625 -13.578125 C 1.65625 -13.785156 1.757812 -13.890625 1.96875 -13.890625 L 3.9375 -13.890625 C 4.132812 -13.890625 4.234375 -13.785156 4.234375 -13.578125 L 4.234375 -2.265625 Z M 10.5 -2.265625 "/></g></g></g></g><g clip-path="url(#0028527fe8)"><g fill="#13294a" fill-opacity="1"><g transform="translate(27.118692, 14.484613)"><g><path d="M 13.4375 -0.453125 C 13.5 -0.316406 13.5 -0.203125 13.4375 -0.109375 C 13.382812 -0.0234375 13.28125 0.015625 13.125 0.015625 L 11.171875 0.015625 C 11.066406 0.015625 10.972656 -0.015625 10.890625 -0.078125 C 10.804688 -0.148438 10.742188 -0.238281 10.703125 -0.34375 L 10.140625 -1.6875 L 3.765625 -1.6875 L 3.21875 -0.34375 C 3.175781 -0.25 3.113281 -0.164062 3.03125 -0.09375 C 2.945312 -0.0195312 2.847656 0.015625 2.734375 0.015625 L 0.78125 0.015625 C 0.632812 0.015625 0.53125 -0.0234375 0.46875 -0.109375 C 0.414062 -0.203125 0.414062 -0.316406 0.46875 -0.453125 L 6.390625 -13.703125 C 6.429688 -13.804688 6.5 -13.890625 6.59375 -13.953125 C 6.6875 -14.023438 6.785156 -14.0625 6.890625 -14.0625 L 7 -14.0625 C 7.113281 -14.0625 7.210938 -14.023438 7.296875 -13.953125 C 7.390625 -13.890625 7.457031 -13.800781 7.5 -13.6875 Z M 4.671875 -3.90625 L 9.234375 -3.90625 L 6.953125 -9.421875 Z M 4.671875 -3.90625 "/></g></g></g></g><g clip-path="url(#e2869b802c)"><g fill="#13294a" fill-opacity="1"><g transform="translate(41.963605, 14.484613)"><g><path d="M 6.265625 0.21875 C 5.742188 0.21875 5.222656 0.160156 4.703125 0.046875 C 4.179688 -0.0664062 3.6875 -0.222656 3.21875 -0.421875 C 2.757812 -0.628906 2.335938 -0.875 1.953125 -1.15625 C 1.578125 -1.445312 1.265625 -1.757812 1.015625 -2.09375 C 0.941406 -2.1875 0.910156 -2.285156 0.921875 -2.390625 C 0.941406 -2.492188 1 -2.59375 1.09375 -2.6875 L 2.28125 -3.875 C 2.363281 -3.957031 2.457031 -3.988281 2.5625 -3.96875 C 2.675781 -3.957031 2.785156 -3.898438 2.890625 -3.796875 C 3.171875 -3.503906 3.488281 -3.238281 3.84375 -3 C 4.207031 -2.769531 4.585938 -2.585938 4.984375 -2.453125 C 5.390625 -2.316406 5.785156 -2.25 6.171875 -2.25 C 6.941406 -2.25 7.535156 -2.398438 7.953125 -2.703125 C 8.367188 -3.003906 8.578125 -3.425781 8.578125 -3.96875 C 8.578125 -4.289062 8.460938 -4.566406 8.234375 -4.796875 C 8.003906 -5.035156 7.671875 -5.253906 7.234375 -5.453125 C 6.804688 -5.648438 6.28125 -5.851562 5.65625 -6.0625 C 5 -6.28125 4.410156 -6.507812 3.890625 -6.75 C 3.378906 -7 2.945312 -7.28125 2.59375 -7.59375 C 2.238281 -7.914062 1.96875 -8.285156 1.78125 -8.703125 C 1.59375 -9.117188 1.5 -9.609375 1.5 -10.171875 C 1.5 -10.953125 1.691406 -11.632812 2.078125 -12.21875 C 2.460938 -12.8125 3.007812 -13.269531 3.71875 -13.59375 C 4.425781 -13.914062 5.265625 -14.078125 6.234375 -14.078125 C 6.753906 -14.078125 7.265625 -14.007812 7.765625 -13.875 C 8.273438 -13.75 8.738281 -13.566406 9.15625 -13.328125 C 9.570312 -13.097656 9.914062 -12.828125 10.1875 -12.515625 C 10.28125 -12.410156 10.328125 -12.296875 10.328125 -12.171875 C 10.335938 -12.046875 10.296875 -11.929688 10.203125 -11.828125 L 9.25 -10.734375 C 9.125 -10.585938 8.992188 -10.519531 8.859375 -10.53125 C 8.734375 -10.550781 8.597656 -10.609375 8.453125 -10.703125 C 8.140625 -10.992188 7.769531 -11.21875 7.34375 -11.375 C 6.925781 -11.539062 6.519531 -11.625 6.125 -11.625 C 5.457031 -11.625 4.941406 -11.484375 4.578125 -11.203125 C 4.210938 -10.929688 4.03125 -10.578125 4.03125 -10.140625 C 4.03125 -9.796875 4.160156 -9.5 4.421875 -9.25 C 4.679688 -9.007812 5.03125 -8.789062 5.46875 -8.59375 C 5.914062 -8.394531 6.410156 -8.207031 6.953125 -8.03125 C 7.515625 -7.84375 8.050781 -7.640625 8.5625 -7.421875 C 9.070312 -7.210938 9.523438 -6.957031 9.921875 -6.65625 C 10.328125 -6.363281 10.644531 -6 10.875 -5.5625 C 11.113281 -5.132812 11.234375 -4.613281 11.234375 -4 C 11.234375 -3.351562 11.113281 -2.769531 10.875 -2.25 C 10.632812 -1.726562 10.289062 -1.28125 9.84375 -0.90625 C 9.40625 -0.539062 8.878906 -0.257812 8.265625 -0.0625 C 7.660156 0.125 6.992188 0.21875 6.265625 0.21875 Z M 6.265625 0.21875 "/></g></g></g></g><g clip-path="url(#c40974886d)"><g fill="#13294a" fill-opacity="1"><g transform="translate(55.018468, 14.484613)"><g><path d="M 6.265625 0.21875 C 5.742188 0.21875 5.222656 0.160156 4.703125 0.046875 C 4.179688 -0.0664062 3.6875 -0.222656 3.21875 -0.421875 C 2.757812 -0.628906 2.335938 -0.875 1.953125 -1.15625 C 1.578125 -1.445312 1.265625 -1.757812 1.015625 -2.09375 C 0.941406 -2.1875 0.910156 -2.285156 0.921875 -2.390625 C 0.941406 -2.492188 1 -2.59375 1.09375 -2.6875 L 2.28125 -3.875 C 2.363281 -3.957031 2.457031 -3.988281 2.5625 -3.96875 C 2.675781 -3.957031 2.785156 -3.898438 2.890625 -3.796875 C 3.171875 -3.503906 3.488281 -3.238281 3.84375 -3 C 4.207031 -2.769531 4.585938 -2.585938 4.984375 -2.453125 C 5.390625 -2.316406 5.785156 -2.25 6.171875 -2.25 C 6.941406 -2.25 7.535156 -2.398438 7.953125 -2.703125 C 8.367188 -3.003906 8.578125 -3.425781 8.578125 -3.96875 C 8.578125 -4.289062 8.460938 -4.566406 8.234375 -4.796875 C 8.003906 -5.035156 7.671875 -5.253906 7.234375 -5.453125 C 6.804688 -5.648438 6.28125 -5.851562 5.65625 -6.0625 C 5 -6.28125 4.410156 -6.507812 3.890625 -6.75 C 3.378906 -7 2.945312 -7.28125 2.59375 -7.59375 C 2.238281 -7.914062 1.96875 -8.285156 1.78125 -8.703125 C 1.59375 -9.117188 1.5 -9.609375 1.5 -10.171875 C 1.5 -10.953125 1.691406 -11.632812 2.078125 -12.21875 C 2.460938 -12.8125 3.007812 -13.269531 3.71875 -13.59375 C 4.425781 -13.914062 5.265625 -14.078125 6.234375 -14.078125 C 6.753906 -14.078125 7.265625 -14.007812 7.765625 -13.875 C 8.273438 -13.75 8.738281 -13.566406 9.15625 -13.328125 C 9.570312 -13.097656 9.914062 -12.828125 10.1875 -12.515625 C 10.28125 -12.410156 10.328125 -12.296875 10.328125 -12.171875 C 10.335938 -12.046875 10.296875 -11.929688 10.203125 -11.828125 L 9.25 -10.734375 C 9.125 -10.585938 8.992188 -10.519531 8.859375 -10.53125 C 8.734375 -10.550781 8.597656 -10.609375 8.453125 -10.703125 C 8.140625 -10.992188 7.769531 -11.21875 7.34375 -11.375 C 6.925781 -11.539062 6.519531 -11.625 6.125 -11.625 C 5.457031 -11.625 4.941406 -11.484375 4.578125 -11.203125 C 4.210938 -10.929688 4.03125 -10.578125 4.03125 -10.140625 C 4.03125 -9.796875 4.160156 -9.5 4.421875 -9.25 C 4.679688 -9.007812 5.03125 -8.789062 5.46875 -8.59375 C 5.914062 -8.394531 6.410156 -8.207031 6.953125 -8.03125 C 7.515625 -7.84375 8.050781 -7.640625 8.5625 -7.421875 C 9.070312 -7.210938 9.523438 -6.957031 9.921875 -6.65625 C 10.328125 -6.363281 10.644531 -6 10.875 -5.5625 C 11.113281 -5.132812 11.234375 -4.613281 11.234375 -4 C 11.234375 -3.351562 11.113281 -2.769531 10.875 -2.25 C 10.632812 -1.726562 10.289062 -1.28125 9.84375 -0.90625 C 9.40625 -0.539062 8.878906 -0.257812 8.265625 -0.0625 C 7.660156 0.125 6.992188 0.21875 6.265625 0.21875 Z M 6.265625 0.21875 "/></g></g></g></g><g fill="#13294a" fill-opacity="1"><g transform="translate(68.073331, 14.484613)"><g/></g></g><g clip-path="url(#376d2c79f4)"><g fill="#13294a" fill-opacity="1"><g transform="translate(74.890417, 14.484613)"><g><path d="M 0.53125 -12.03125 L 0.53125 -13.46875 C 0.53125 -13.738281 0.664062 -13.875 0.9375 -13.875 L 10.453125 -13.875 C 10.566406 -13.875 10.660156 -13.835938 10.734375 -13.765625 C 10.804688 -13.691406 10.84375 -13.59375 10.84375 -13.46875 L 10.84375 -12.03125 C 10.84375 -11.75 10.710938 -11.609375 10.453125 -11.609375 L 6.96875 -11.609375 L 6.96875 -0.390625 C 6.96875 -0.117188 6.832031 0.015625 6.5625 0.015625 L 4.796875 0.015625 C 4.523438 0.015625 4.390625 -0.117188 4.390625 -0.390625 L 4.390625 -11.609375 L 0.9375 -11.609375 C 0.820312 -11.609375 0.722656 -11.644531 0.640625 -11.71875 C 0.566406 -11.789062 0.53125 -11.894531 0.53125 -12.03125 Z M 0.53125 -12.03125 "/></g></g></g></g><g clip-path="url(#375db23cb8)"><g fill="#13294a" fill-opacity="1"><g transform="translate(87.205514, 14.484613)"><g><path d="M 10.359375 -4.09375 L 12.234375 -0.46875 C 12.296875 -0.332031 12.300781 -0.21875 12.25 -0.125 C 12.207031 -0.03125 12.113281 0.015625 11.96875 0.015625 L 9.953125 0.015625 C 9.867188 0.015625 9.78125 -0.015625 9.6875 -0.078125 C 9.601562 -0.148438 9.535156 -0.234375 9.484375 -0.328125 L 8.0625 -3.265625 C 7.90625 -3.242188 7.75 -3.226562 7.59375 -3.21875 C 7.4375 -3.207031 7.273438 -3.203125 7.109375 -3.203125 L 4.234375 -3.203125 L 4.234375 -0.390625 C 4.234375 -0.265625 4.191406 -0.164062 4.109375 -0.09375 C 4.035156 -0.0195312 3.9375 0.015625 3.8125 0.015625 L 2.0625 0.015625 C 1.945312 0.015625 1.847656 -0.0195312 1.765625 -0.09375 C 1.691406 -0.164062 1.65625 -0.265625 1.65625 -0.390625 L 1.65625 -13.484375 C 1.65625 -13.597656 1.691406 -13.691406 1.765625 -13.765625 C 1.847656 -13.835938 1.945312 -13.875 2.0625 -13.875 L 2.515625 -13.875 C 2.785156 -13.875 3.050781 -13.875 3.3125 -13.875 C 3.570312 -13.875 3.753906 -13.875 3.859375 -13.875 L 7.109375 -13.875 C 7.921875 -13.875 8.664062 -13.738281 9.34375 -13.46875 C 10.03125 -13.207031 10.625 -12.835938 11.125 -12.359375 C 11.625 -11.878906 12.015625 -11.304688 12.296875 -10.640625 C 12.578125 -9.984375 12.71875 -9.269531 12.71875 -8.5 C 12.71875 -7.550781 12.503906 -6.695312 12.078125 -5.9375 C 11.660156 -5.175781 11.085938 -4.5625 10.359375 -4.09375 Z M 6.9375 -5.359375 C 7.5625 -5.359375 8.113281 -5.492188 8.59375 -5.765625 C 9.070312 -6.035156 9.445312 -6.40625 9.71875 -6.875 C 10 -7.351562 10.140625 -7.898438 10.140625 -8.515625 C 10.140625 -8.960938 10.054688 -9.375 9.890625 -9.75 C 9.734375 -10.125 9.507812 -10.453125 9.21875 -10.734375 C 8.9375 -11.015625 8.597656 -11.226562 8.203125 -11.375 C 7.816406 -11.53125 7.394531 -11.609375 6.9375 -11.609375 L 4.234375 -11.609375 L 4.234375 -5.359375 Z M 6.9375 -5.359375 "/></g></g></g></g><g clip-path="url(#ffc1784d45)"><g fill="#13294a" fill-opacity="1"><g transform="translate(101.99563, 14.484613)"><g><path d="M 13.4375 -0.453125 C 13.5 -0.316406 13.5 -0.203125 13.4375 -0.109375 C 13.382812 -0.0234375 13.28125 0.015625 13.125 0.015625 L 11.171875 0.015625 C 11.066406 0.015625 10.972656 -0.015625 10.890625 -0.078125 C 10.804688 -0.148438 10.742188 -0.238281 10.703125 -0.34375 L 10.140625 -1.6875 L 3.765625 -1.6875 L 3.21875 -0.34375 C 3.175781 -0.25 3.113281 -0.164062 3.03125 -0.09375 C 2.945312 -0.0195312 2.847656 0.015625 2.734375 0.015625 L 0.78125 0.015625 C 0.632812 0.015625 0.53125 -0.0234375 0.46875 -0.109375 C 0.414062 -0.203125 0.414062 -0.316406 0.46875 -0.453125 L 6.390625 -13.703125 C 6.429688 -13.804688 6.5 -13.890625 6.59375 -13.953125 C 6.6875 -14.023438 6.785156 -14.0625 6.890625 -14.0625 L 7 -14.0625 C 7.113281 -14.0625 7.210938 -14.023438 7.296875 -13.953125 C 7.390625 -13.890625 7.457031 -13.800781 7.5 -13.6875 Z M 4.671875 -3.90625 L 9.234375 -3.90625 L 6.953125 -9.421875 Z M 4.671875 -3.90625 "/></g></g></g></g><g clip-path="url(#6dad674aa2)"><g fill="#13294a" fill-opacity="1"><g transform="translate(116.840543, 14.484613)"><g><path d="M 10.828125 -3.328125 C 10.941406 -3.421875 11.054688 -3.460938 11.171875 -3.453125 C 11.285156 -3.441406 11.375 -3.394531 11.4375 -3.3125 L 12.484375 -1.71875 C 12.535156 -1.65625 12.539062 -1.570312 12.5 -1.46875 C 12.46875 -1.363281 12.398438 -1.273438 12.296875 -1.203125 C 11.929688 -0.921875 11.507812 -0.671875 11.03125 -0.453125 C 10.5625 -0.242188 10.070312 -0.0820312 9.5625 0.03125 C 9.050781 0.15625 8.5625 0.21875 8.09375 0.21875 C 7.28125 0.21875 6.507812 0.101562 5.78125 -0.125 C 5.050781 -0.363281 4.382812 -0.695312 3.78125 -1.125 C 3.175781 -1.5625 2.648438 -2.078125 2.203125 -2.671875 C 1.765625 -3.265625 1.425781 -3.921875 1.1875 -4.640625 C 0.945312 -5.359375 0.828125 -6.117188 0.828125 -6.921875 C 0.828125 -7.722656 0.945312 -8.484375 1.1875 -9.203125 C 1.425781 -9.921875 1.765625 -10.578125 2.203125 -11.171875 C 2.648438 -11.773438 3.175781 -12.289062 3.78125 -12.71875 C 4.382812 -13.15625 5.050781 -13.488281 5.78125 -13.71875 C 6.507812 -13.957031 7.28125 -14.078125 8.09375 -14.078125 C 8.550781 -14.078125 9.035156 -14.019531 9.546875 -13.90625 C 10.054688 -13.789062 10.554688 -13.625 11.046875 -13.40625 C 11.535156 -13.195312 11.96875 -12.9375 12.34375 -12.625 C 12.457031 -12.539062 12.519531 -12.445312 12.53125 -12.34375 C 12.550781 -12.25 12.535156 -12.164062 12.484375 -12.09375 L 11.4375 -10.53125 C 11.394531 -10.445312 11.316406 -10.394531 11.203125 -10.375 C 11.085938 -10.363281 10.96875 -10.410156 10.84375 -10.515625 C 10.46875 -10.835938 10.03125 -11.082031 9.53125 -11.25 C 9.039062 -11.425781 8.5625 -11.515625 8.09375 -11.515625 C 7.4375 -11.515625 6.820312 -11.394531 6.25 -11.15625 C 5.6875 -10.925781 5.191406 -10.597656 4.765625 -10.171875 C 4.335938 -9.753906 4 -9.265625 3.75 -8.703125 C 3.507812 -8.148438 3.390625 -7.554688 3.390625 -6.921875 C 3.390625 -6.285156 3.507812 -5.6875 3.75 -5.125 C 4 -4.570312 4.335938 -4.085938 4.765625 -3.671875 C 5.203125 -3.253906 5.703125 -2.929688 6.265625 -2.703125 C 6.828125 -2.472656 7.4375 -2.359375 8.09375 -2.359375 C 8.539062 -2.359375 9.007812 -2.441406 9.5 -2.609375 C 10 -2.785156 10.441406 -3.023438 10.828125 -3.328125 Z M 10.828125 -3.328125 "/></g></g></g></g><g clip-path="url(#fdde7313fc)"><g fill="#13294a" fill-opacity="1"><g transform="translate(131.228811, 14.484613)"><g><path d="M 13.828125 -0.484375 C 13.910156 -0.347656 13.929688 -0.226562 13.890625 -0.125 C 13.847656 -0.03125 13.757812 0.015625 13.625 0.015625 L 11.421875 0.015625 C 11.253906 0.015625 11.117188 -0.0507812 11.015625 -0.1875 L 6.65625 -7.703125 L 4.234375 -5.328125 L 4.234375 -0.296875 C 4.234375 -0.0859375 4.132812 0.015625 3.9375 0.015625 L 1.96875 0.015625 C 1.757812 0.015625 1.65625 -0.0859375 1.65625 -0.296875 L 1.65625 -13.578125 C 1.65625 -13.785156 1.757812 -13.890625 1.96875 -13.890625 L 3.9375 -13.890625 C 4.132812 -13.890625 4.234375 -13.785156 4.234375 -13.578125 L 4.234375 -8.609375 L 9.40625 -13.59375 C 9.507812 -13.707031 9.601562 -13.78125 9.6875 -13.8125 C 9.769531 -13.851562 9.875 -13.875 10 -13.875 L 12.25 -13.875 C 12.40625 -13.875 12.5 -13.8125 12.53125 -13.6875 C 12.570312 -13.5625 12.535156 -13.445312 12.421875 -13.34375 L 8.515625 -9.515625 Z M 13.828125 -0.484375 "/></g></g></g></g><g clip-path="url(#e3cf4e42d4)"><g fill="#13294a" fill-opacity="1"><g transform="translate(146.365977, 14.484613)"><g><path d="M 11.703125 -2.453125 C 11.867188 -2.453125 12 -2.40625 12.09375 -2.3125 C 12.195312 -2.21875 12.25 -2.09375 12.25 -1.9375 L 12.25 -0.40625 C 12.25 -0.28125 12.210938 -0.179688 12.140625 -0.109375 C 12.066406 -0.0351562 11.960938 0 11.828125 0 L 2.0625 0 C 1.789062 0 1.65625 -0.132812 1.65625 -0.40625 L 1.65625 -13.46875 C 1.65625 -13.738281 1.789062 -13.875 2.0625 -13.875 L 11.640625 -13.875 C 11.773438 -13.875 11.878906 -13.835938 11.953125 -13.765625 C 12.023438 -13.691406 12.0625 -13.59375 12.0625 -13.46875 L 12.0625 -11.84375 C 12.0625 -11.5625 11.921875 -11.421875 11.640625 -11.421875 L 4.234375 -11.421875 L 4.234375 -7.59375 L 10.03125 -7.59375 C 10.1875 -7.59375 10.304688 -7.554688 10.390625 -7.484375 C 10.472656 -7.410156 10.515625 -7.304688 10.515625 -7.171875 L 10.515625 -5.640625 C 10.515625 -5.523438 10.472656 -5.425781 10.390625 -5.34375 C 10.304688 -5.269531 10.1875 -5.234375 10.03125 -5.234375 L 4.234375 -5.234375 L 4.234375 -2.453125 Z M 11.703125 -2.453125 "/></g></g></g></g><g clip-path="url(#bfe92049f6)"><g fill="#13294a" fill-opacity="1"><g transform="translate(160.48939, 14.484613)"><g><path d="M 10.359375 -4.09375 L 12.234375 -0.46875 C 12.296875 -0.332031 12.300781 -0.21875 12.25 -0.125 C 12.207031 -0.03125 12.113281 0.015625 11.96875 0.015625 L 9.953125 0.015625 C 9.867188 0.015625 9.78125 -0.015625 9.6875 -0.078125 C 9.601562 -0.148438 9.535156 -0.234375 9.484375 -0.328125 L 8.0625 -3.265625 C 7.90625 -3.242188 7.75 -3.226562 7.59375 -3.21875 C 7.4375 -3.207031 7.273438 -3.203125 7.109375 -3.203125 L 4.234375 -3.203125 L 4.234375 -0.390625 C 4.234375 -0.265625 4.191406 -0.164062 4.109375 -0.09375 C 4.035156 -0.0195312 3.9375 0.015625 3.8125 0.015625 L 2.0625 0.015625 C 1.945312 0.015625 1.847656 -0.0195312 1.765625 -0.09375 C 1.691406 -0.164062 1.65625 -0.265625 1.65625 -0.390625 L 1.65625 -13.484375 C 1.65625 -13.597656 1.691406 -13.691406 1.765625 -13.765625 C 1.847656 -13.835938 1.945312 -13.875 2.0625 -13.875 L 2.515625 -13.875 C 2.785156 -13.875 3.050781 -13.875 3.3125 -13.875 C 3.570312 -13.875 3.753906 -13.875 3.859375 -13.875 L 7.109375 -13.875 C 7.921875 -13.875 8.664062 -13.738281 9.34375 -13.46875 C 10.03125 -13.207031 10.625 -12.835938 11.125 -12.359375 C 11.625 -11.878906 12.015625 -11.304688 12.296875 -10.640625 C 12.578125 -9.984375 12.71875 -9.269531 12.71875 -8.5 C 12.71875 -7.550781 12.503906 -6.695312 12.078125 -5.9375 C 11.660156 -5.175781 11.085938 -4.5625 10.359375 -4.09375 Z M 6.9375 -5.359375 C 7.5625 -5.359375 8.113281 -5.492188 8.59375 -5.765625 C 9.070312 -6.035156 9.445312 -6.40625 9.71875 -6.875 C 10 -7.351562 10.140625 -7.898438 10.140625 -8.515625 C 10.140625 -8.960938 10.054688 -9.375 9.890625 -9.75 C 9.734375 -10.125 9.507812 -10.453125 9.21875 -10.734375 C 8.9375 -11.015625 8.597656 -11.226562 8.203125 -11.375 C 7.816406 -11.53125 7.394531 -11.609375 6.9375 -11.609375 L 4.234375 -11.609375 L 4.234375 -5.359375 Z M 6.9375 -5.359375 "/></g></g></g></g></g></g></svg>